<?xml version="1.0" encoding="UTF-8" standalone="no"?>
<svg xmlns:dc="http://purl.org/dc/elements/1.1/" xmlns:cc="http://creativecommons.org/ns#" xmlns:rdf="http://www.w3.org/1999/02/22-rdf-syntax-ns#" xmlns:svg="http://www.w3.org/2000/svg" xmlns="http://www.w3.org/2000/svg" xmlns:sodipodi="http://sodipodi.sourceforge.net/DTD/sodipodi-0.dtd" xmlns:inkscape="http://www.inkscape.org/namespaces/inkscape" width="70" height="70" viewBox="0 0 70 70" id="svg4564" version="1.1" inkscape:version="0.91 r" sodipodi:docname="shrink_exit_full_screen_app_multimedia_ui.svg">
  <defs id="defs4566">
    <inkscape:path-effect effect="spiro" id="path-effect4539" is_visible="true"/>
    <inkscape:path-effect effect="spiro" id="path-effect4543" is_visible="true"/>
    <inkscape:path-effect effect="spiro" id="path-effect4555" is_visible="true"/>
    <inkscape:path-effect effect="spiro" id="path-effect4559" is_visible="true"/>
    <inkscape:path-effect effect="spiro" id="path-effect4401" is_visible="true"/>
  </defs>
  <sodipodi:namedview id="base" pagecolor="#282c34" bordercolor="#666666" borderopacity="1.0" inkscape:pageopacity="0.0" inkscape:pageshadow="2" inkscape:zoom="2.5456177" inkscape:cx="85.943451" inkscape:cy="26.024274" inkscape:document-units="px" inkscape:current-layer="layer1" showgrid="false" units="px" inkscape:window-width="1366" inkscape:window-height="713" inkscape:window-x="0" inkscape:window-y="26" inkscape:window-maximized="1"/>

  <g inkscape:label="Layer 1" inkscape:groupmode="layer" id="layer1" transform="translate(0,-982.3622)">
    <path style="color: #282c34; font-style: normal; font-variant: normal; font-weight: normal; font-stretch: normal; font-size: medium; line-height: normal; font-family: sans-serif; text-indent: 0; text-align: start; text-decoration: none; text-decoration-line: none; text-decoration-style: solid; text-decoration-color: #282c34; letter-spacing: normal; word-spacing: normal; text-transform: none; direction: ltr; block-progression: tb; writing-mode: lr-tb; baseline-shift: baseline; text-anchor: start; white-space: normal; clip-rule: nonzero; display: inline; overflow: visible; visibility: visible; opacity: 1; isolation: auto; mix-blend-mode: normal; color-interpolation: sRGB; color-interpolation-filters: linearRGB; solid-color: #282c34; solid-opacity: 1; fill: #282c34; fill-opacity: 1; fill-rule: evenodd; stroke: none; stroke-width: 4; stroke-linecap: round; stroke-linejoin: round; stroke-miterlimit: 4; stroke-dasharray: none; stroke-dashoffset: 0; stroke-opacity: 1; color-rendering: auto; image-rendering: auto; shape-rendering: auto; text-rendering: auto; enable-background: accumulate;" d="m 20.927597,1001.3634 a 2.0002738,2.0002738 0 0 0 -1.71686,2.8926 l 6.552976,13.106 -6.552976,13.1079 a 2.0002738,2.0002738 0 0 0 2.683693,2.6818 l 13.105952,-6.553 13.105953,6.553 a 2.0002738,2.0002738 0 0 0 2.683692,-2.6818 l -6.552976,-13.1079 6.552976,-13.106 a 2.0002738,2.0002738 0 0 0 -2.683692,-2.6817 l -13.105953,6.553 -13.105952,-6.553 a 2.0002738,2.0002738 0 0 0 -0.966833,-0.2109 z m 4.543137,6.471 8.635084,4.3165 a 2.0002738,2.0002738 0 0 0 1.789128,0 l 8.635085,-4.3165 -4.31852,8.635 a 2.0002738,2.0002738 0 0 0 0,1.7871 l 4.31852,8.6352 -8.635085,-4.3166 a 2.0002738,2.0002738 0 0 0 -1.789128,0 l -8.635084,4.3166 4.318518,-8.6352 a 2.0002738,2.0002738 0 0 0 0,-1.7871 l -4.318518,-8.635 z" id="path4467" inkscape:connector-curvature="0"/>
  </g>

	<metadata>
		<rdf:RDF xmlns:rdf="http://www.w3.org/1999/02/22-rdf-syntax-ns#" xmlns:rdfs="http://www.w3.org/2000/01/rdf-schema#" xmlns:dc="http://purl.org/dc/elements/1.1/">
			<rdf:Description about="https://iconscout.com/legal#licenses" dc:title="shrink_exit_full_screen_app_multimedia_ui" dc:description="shrink_exit_full_screen_app_multimedia_ui" dc:publisher="Iconscout" dc:date="2017-05-19" dc:format="image/svg+xml" dc:language="en">
				<dc:creator>
					<rdf:Bag>
						<rdf:li>Vignesh Oviyan</rdf:li>
					</rdf:Bag>
				</dc:creator>
			</rdf:Description>
		</rdf:RDF>
    </metadata></svg>
